<?xml version="1.0" standalone="no"?>
<!DOCTYPE svg PUBLIC "-//W3C//DTD SVG 20010904//EN"
 "http://www.w3.org/TR/2001/REC-SVG-20010904/DTD/svg10.dtd">
<svg version="1.0" xmlns="http://www.w3.org/2000/svg"
 width="360.000000pt" height="360.000000pt" viewBox="0 0 360.000000 360.000000"
 preserveAspectRatio="xMidYMid meet">
<metadata>
Created by potrace 1.11, written by Peter Selinger 2001-2013
</metadata>
<g transform="translate(0.000000,360.000000) scale(0.100000,-0.100000)"
fill="#000000" stroke="none">
<path d="M1820 3170 l0 -50 -100 0 -100 0 0 -50 0 -50 -50 0 -50 0 0 -50 0
-50 -50 0 -50 0 0 -200 0 -200 50 0 50 0 0 -50 0 -50 50 0 50 0 0 -50 0 -50
50 0 50 0 0 -100 0 -100 -50 0 -50 0 0 -50 0 -50 -100 0 -100 0 0 -50 0 -50
-100 0 -100 0 0 -50 0 -50 -100 0 -100 0 0 -50 0 -50 -100 0 -100 0 0 250 0
250 50 0 50 0 0 50 0 50 50 0 50 0 0 50 0 50 -50 0 -50 0 0 145 0 145 -50 0
-50 0 0 50 0 50 -100 0 -100 0 0 -50 0 -50 -50 0 -50 0 0 -645 0 -645 50 0 50
0 0 -50 0 -50 250 0 250 0 0 50 0 50 50 0 50 0 0 -500 0 -500 700 0 700 0 0
450 0 450 50 0 50 0 0 -450 0 -450 50 0 50 0 0 800 0 800 -50 0 -50 0 0 50 0
50 -50 0 -50 0 0 50 0 50 -150 0 -150 0 0 50 0 50 50 0 50 0 0 200 0 200 -50
0 -50 0 0 50 0 50 50 0 50 0 0 50 0 50 -50 0 -50 0 0 50 0 50 -50 0 -50 0 0
50 0 50 -100 0 -100 0 0 50 0 50 -100 0 -100 0 0 -50z m400 -400 l0 -50 50 0
50 0 0 -200 0 -200 -50 0 -50 0 0 -100 0 -100 -100 0 -100 0 0 -50 0 -50 100
0 100 0 0 -50 0 -50 -100 0 -100 0 0 50 0 50 -100 0 -100 0 0 50 0 50 100 0
100 0 0 50 0 50 -100 0 -100 0 0 50 0 50 -50 0 -50 0 0 50 0 50 50 0 50 0 0
150 0 150 100 0 100 0 0 50 0 50 100 0 100 0 0 -50z m-1400 -205 l0 -145 50 0
50 0 0 -50 0 -50 -50 0 -50 0 0 -50 0 -50 -50 0 -50 0 0 -300 0 -300 50 0 50
0 0 -100 0 -100 -100 0 -100 0 0 645 0 645 100 0 100 0 0 -145z"/>
</g>
</svg>
